<svg width="185" height="6" viewBox="0 0 185 6" fill="none" xmlns="http://www.w3.org/2000/svg">
<path d="M0.833333 3C0.833333 4.47276 2.02724 5.66667 3.5 5.66667C4.97276 5.66667 6.16667 4.47276 6.16667 3C6.16667 1.52724 4.97276 0.333333 3.5 0.333333C2.02724 0.333333 0.833333 1.52724 0.833333 3ZM178.833 3C178.833 4.47276 180.027 5.66667 181.5 5.66667C182.973 5.66667 184.167 4.47276 184.167 3C184.167 1.52724 182.973 0.333333 181.5 0.333333C180.027 0.333333 178.833 1.52724 178.833 3ZM3.5 3V3.5H181.5V3V2.5H3.5V3Z" fill="#EC884C"/>
</svg>
